<svg xmlns="http://www.w3.org/2000/svg" viewBox="0 0 246.26 247.17"><defs><style>.cls-1{fill:#244193;}.cls-2{fill:#f2e733;}.cls-3{fill:#f9e82c;}</style></defs><title>Logo Hemle Original</title><g id="Layer_2" data-name="Layer 2"><g id="Layer_1-2" data-name="Layer 1"><path class="cls-1" d="M177.63,142.75c-1.09,1.77-.86,2.07,1.16,2.67,3.71,1.08,7.38,2.33,11.06,3.53.39.13.69.27.49,1a38.13,38.13,0,0,0-.88,4.65c-.12.71.06,1.12.91,1.42,5.72,2,11.3,4.28,16.82,6.77,1.45.66,2.86,1.43,4.34,2.18l-1.88,1.31a7,7,0,0,0-1.81.87,50.85,50.85,0,0,0-6.05,3c-1.81,1-3.56,2.08-5.36,3.08a7,7,0,0,0-1.51,1.24c-1.31.64-1.32.84-.25,2.7a18.17,18.17,0,0,0,1.47,4.73c1.63,4.6,3.35,9.16,5,13.74.16.44.33.87.55,1.48-1.92-.42-3.4-1.63-5.22-1.8a12.53,12.53,0,0,0-3.58-1.45c-1.62-1.29-3.66-1.67-5.49-2.48q-5.81-2.58-11.78-4.75c-1.24-.45-1.08-1.07-.88-2,.24-1.11.46-2.22.67-3.33a1.14,1.14,0,0,0-.9-1.49c-1-.29-2.09-.58-3.12-.92-.43-.15-.83-.1-.89.31-.33,2.12-1,4.17-1,6.34a12.62,12.62,0,0,0-.59,3.76c-1.21,1.5-3.06,2.1-4.51,3.24-1.19.94-2.64,1.48-3.69,2.61a6.25,6.25,0,0,0-2,1.37c-.64,0-1,.44-1.47.75-2.47,1.76-5.24,3.07-7.51,5.11a6.5,6.5,0,0,0-1.86,1.15,93.19,93.19,0,0,0-9.89,6.57,4.08,4.08,0,0,0-1.85,1.2,9.37,9.37,0,0,0-2.89,1.7c-3,1.9-5.89,3.84-8.83,5.77a2.35,2.35,0,0,0-.4.43c-.52.28-1,0-1.49-.11a52.64,52.64,0,0,0-7.25-4.94c-1.52-1-2.87-2.24-4.62-2.84a5.41,5.41,0,0,0-1.94-1.29,55.09,55.09,0,0,0-6.43-4.37,10.19,10.19,0,0,0-3.22-1.9,7.3,7.3,0,0,0-2.21-1.43c-1.44-1.51-3.36-2.36-5-3.52a17.12,17.12,0,0,0-3.68-2.25,7.7,7.7,0,0,0-2.22-1.37c-2.43-2.11-5.32-3.56-7.93-5.41a21.23,21.23,0,0,0-.66-3.54c.16-1.91-.59-3.68-.82-5.54s-.38-1.82-2.35-1.41c-.12,0-.25,0-.37,0-3,.57-3,.65-2.29,3.56a25.34,25.34,0,0,0,.59,2.72c.21.59-.29.78-.69.94-2.28.93-4.56,1.83-6.84,2.76s-4.56,1.85-6.82,2.81a3.11,3.11,0,0,0-.73.64,10,10,0,0,0-3.89,1.58c-1.47,0-2.66.86-4,1.35s-2.59,1.07-4.06,1.69c1.16-3.29,2.26-6.39,3.35-9.49.92-2.58,1.82-5.17,2.78-7.74a2.3,2.3,0,0,0,.15-1.18,10,10,0,0,0,1.24-3.48c.66-.74-.21-.86-.51-1-1.85-1.07-3.72-2.14-5.64-3.09-2.1-1-4-2.46-6.22-3.25a5.44,5.44,0,0,0-1.84-.94L35.06,165c3.85-1.65,7.68-3.32,11.53-5,3.11-1.32,6.24-2.62,9.36-3.93.94-.39,1.69-.78,1.22-2.1a34,34,0,0,1-1-4c-.14-.6-.14-1,.66-1.24,3.94-1.16,7.85-2.42,11.78-3.61.87-.26,1-.61.39-1.26a15.34,15.34,0,0,0-.7-3.74,16.89,16.89,0,0,0-1-5.53c-.23-1.23-.47-2.47-.7-3.71a14,14,0,0,0-1-5c0-.11.08-.29-.17-.23h0a7.73,7.73,0,0,0-.6-3.52A17.24,17.24,0,0,0,63.6,116a11.37,11.37,0,0,0-.71-3.64c.47-.93-.15-1.77-.3-2.63a17,17,0,0,0-1-4.51,23.69,23.69,0,0,0-.72-3.66,23.93,23.93,0,0,0-.73-4.76c-.21-1.23-.51-2.44-.72-3.66a1.76,1.76,0,0,0-.47-.83,9.42,9.42,0,0,0-.67-3.71c.39-1.33-.29-2.55-.49-3.8-.46-2.87-1.1-5.7-1.61-8.56a2,2,0,0,0-.53-.92c-.15-1,.67-1.25,1.33-1.61,3.22-1.33,6.23-3.08,9.37-4.55.16-.08.25-.31.37-.47A3.71,3.71,0,0,0,69,67.51,2.46,2.46,0,0,0,70.69,67q3.21-1.65,6.45-3.24a2.26,2.26,0,0,0,1-.68,7.16,7.16,0,0,0,2.58-1.31c1.37.1,2.23-1,3.4-1.44A27.42,27.42,0,0,0,88,58.43c.32-.17.79-.39.58-1a72,72,0,0,0-1.84-9.63,6.61,6.61,0,0,0-.27-2.76,22.26,22.26,0,0,0-.74-3.54c-.21-.72.39-.64.64-.74C88.91,39.86,91.47,39,94,38a1.15,1.15,0,0,0,.56-.43,4.07,4.07,0,0,0,1.93-.67c1.59-.1,3-.92,4.41-1.41,1.94-.64,3.85-1.34,5.76-2.05a6.46,6.46,0,0,0,1.13-.71c.65-.14,1.37-.09,1.85-.69,1.17.24,2.11-.52,3.11-.84,3.13-1,6.19-2.27,9.27-3.44a2.61,2.61,0,0,0,.49-.35l1.51,0a33.68,33.68,0,0,0,5.38,2.14c2,.75,4,1.47,6,2.26a2.89,2.89,0,0,0,1.19.15,3.22,3.22,0,0,0,1.88.68c1.19,1,2.7,1.23,4.08,1.73A66.88,66.88,0,0,0,149.76,37a4.52,4.52,0,0,0,1.79.56c1.43,1.07,3.2,1.3,4.78,2A29.71,29.71,0,0,0,160.17,41c.83.24.85.57.71,1.32-.27,1.44-.88,2.83-.71,4.35A84.6,84.6,0,0,0,158,56.74c-.59.73-.49,1.17.41,1.63,2.16,1.1,4.4,2,6.46,3.32.11.07.32,0,.48,0a9.51,9.51,0,0,0,2.35,1.21c1.86,1.2,3.9,2.05,5.85,3.07.85.44,1.74.82,2.61,1.22a12.69,12.69,0,0,0,2.49,1.13c.38.75,1.21.77,1.84,1.09,2.59,1.32,5.14,2.76,7.86,3.82l2.18,1.25q-1.29,6.21-2.57,12.41c0,.26.13.37.24.52A11.82,11.82,0,0,0,187.5,91c-.76,1.68-.82,3.53-1.27,5.28-.29,1.13-.29,2.32-.69,3.43a.49.49,0,0,0,.17.64,13.8,13.8,0,0,0-.7,3.76,29.5,29.5,0,0,0-1.5,7.32,21.68,21.68,0,0,0-.64,3.67c-.65.79-.5,1.8-.72,2.72a8.9,8.9,0,0,0-.41,3.2,13.59,13.59,0,0,0-.71,3.62,15.16,15.16,0,0,0-1,5.49,17.18,17.18,0,0,0-.73,3.56,14.3,14.3,0,0,0-1,5.45A9.89,9.89,0,0,0,177.63,142.75Zm-52.91-2.85c-5.81,0-10.63.18-15.45.54A210.6,210.6,0,0,0,82,144.27a177.79,177.79,0,0,0-22.07,6.14c-1.35.47-1.42,1.12-1.13,2.29,1.2,5,2.33,10,3.49,14.93.83,3.52,1.67,7,2.48,10.56.24,1.08.65,1.49,1.79.91a5.42,5.42,0,0,1,2.47-.8c3.86,0,7.73,0,11.6,0,.68,0,1.08.17,1.19.93.16,1.11.51,2.19.6,3.3a2.75,2.75,0,0,0,1.41,2.19q18.12,12.35,36.24,24.72c3.12,2.13,3.15,2.16,6.22.11,11.62-7.73,23.2-15.53,34.85-23.22,1.61-1.06,2.67-2.18,2.71-4.19,0-1,.44-1.94.55-2.93.08-.82.46-1,1.21-1,2.79,0,5.57,0,8.36,0,2.36,0,4.75-.13,7,1,.76.38.91-.16,1-.74q.89-4.08,1.8-8.15c1.34-6,2.68-11.92,4.06-17.86.24-1,.13-1.54-1-1.93-3.89-1.36-7.82-2.56-11.77-3.7a182.05,182.05,0,0,0-29.81-5.75A171,171,0,0,0,124.72,139.9Zm45.16-15.74a5.15,5.15,0,0,1-.54-1.94A47,47,0,0,0,149.3,94a1.49,1.49,0,0,1-.78-1.8c1.09-5.84,2.11-11.7,3.18-17.54q2.73-14.9,5.51-29.78c.2-1.07-.09-1.54-1.11-1.93q-16-6.1-32-12.3a2.15,2.15,0,0,0-1.67,0q-16.2,6.2-32.39,12.35c-.87.33-1.06.76-.88,1.68,1.49,7.63,2.92,15.27,4.36,22.91,1.56,8.25,3.09,16.5,4.68,24.74a1.39,1.39,0,0,1-.73,1.71,47,47,0,0,0-12.43,12,46.09,46.09,0,0,0-8,18.62,14,14,0,0,1-.39,1.41c-.69-4.53-1.59-9.08-2.44-13.63-1.87-10-3.71-20.1-5.61-30.15a1.23,1.23,0,0,1,.79-1.63c6.45-3.17,12.88-6.39,19.32-9.59,3.38-1.68,3.35-1.67,2.56-5.34-.22-1-.52-1-1.39-.61Q77.33,71.43,64.75,77.62c-1.87.93-1.81.92-1.4,3Q65,89,66.56,97.41q1.93,10.35,3.82,20.7c.91,4.91,1.81,9.81,2.73,14.71.58,3.1,1.2,6.2,1.78,9.3.15.82.36,1.22,1.39.91,1.75-.51,3.56-.8,5.35-1.14,1.57-.3,1.64-.37,1.38-1.95a38.27,38.27,0,0,1,2.86-22.55c6.79-14.61,18.26-23,34.33-24.57a38.88,38.88,0,0,1,27.65,8,40,40,0,0,1,14.31,19.64,41.26,41.26,0,0,1,1.72,20.05c-.1.66-.12,1.12.69,1.29,1.91.4,3.81.84,5.71,1.29.77.19,1-.12,1.16-.85.73-4.13,1.5-8.25,2.27-12.37q2.65-14,5.32-28c1.38-7.35,2.73-14.71,4.15-22,.17-.9,0-1.33-.79-1.76-5.92-3-11.81-6.13-17.7-9.2-2.62-1.37-5.24-2.72-7.84-4.12-.92-.49-1.35-.33-1.46.75a22.53,22.53,0,0,1-.48,2.58,1.25,1.25,0,0,0,.8,1.58c7,3.63,14,7.31,21,10.92a1.72,1.72,0,0,1,1,2.24c-1.67,8.56-3.26,17.14-4.88,25.72Zm-45.81-11.27h0c0,1.82,0,3.66,0,5.48a2.22,2.22,0,0,0,1,2.09c3.35,2.45,6.66,5,9.95,7.49a2.11,2.11,0,0,0,2.5.29c3.38-1.61,6.76-3.2,10.19-4.67a2.42,2.42,0,0,0,1.6-2c.67-3.17,1.4-6.33,2.12-9.48a2.39,2.39,0,0,0-.46-2.2,32,32,0,0,0-15.82-11,1.87,1.87,0,0,0-1.86.32q-4.17,3.15-8.44,6.2a1.9,1.9,0,0,0-.8,1.81C124.09,109.14,124.07,111,124.07,112.89Zm-1.47.06h0c0-2,0-4,0-6a1.51,1.51,0,0,0-.63-1.39q-4.33-3.14-8.62-6.35a1.79,1.79,0,0,0-1.75-.31,31.67,31.67,0,0,0-16,11.16,1.74,1.74,0,0,0-.46,1.58c.83,3.48,1.57,7,2.35,10.46a1.57,1.57,0,0,0,.94,1.22q5.38,2.44,10.76,4.93a2,2,0,0,0,2.31-.2q5.15-3.94,10.35-7.79a1.6,1.6,0,0,0,.71-1.46C122.57,116.86,122.6,114.91,122.6,113Zm74.62,79.91c.73-.22.34-.71.2-1.07q-3.16-8.31-6.39-16.63c-.27-.71-.24-1,.49-1.47,4.47-2.56,8.9-5.18,13.34-7.79.38-.22,1-.33,1-.82s-.65-.56-1-.73c-5-2.12-10-4.21-15-6.33-.92-.39-1.34-.32-1.6.82-1.62,7.16-3.34,14.31-5,21.47a1.54,1.54,0,0,1-.85,1.13c-1.43.76-2.84,1.55-4.25,2.36-.34.2-.9.34-.85.78s.62.48,1,.63q8.25,3.34,16.52,6.66ZM55.76,174.53l-.26.67q-3,8.18-6.08,16.34c-.12.33-.5.72-.18,1s.76,0,1.13-.16l8.92-3.53,9.13-3.65c.33-.13.83-.19.85-.6s-.48-.51-.79-.69c-1.22-.72-2.42-1.47-3.67-2.11a2.34,2.34,0,0,1-1.31-1.67c-1.71-7.06-3.5-14.09-5.17-21.16-.29-1.26-.73-1.2-1.67-.81-2.92,1.21-5.85,2.37-8.78,3.55l-6.81,2.72c-.27.11-.61.23-.65.53s.34.43.57.59a6,6,0,0,0,.64.38L55,173.65C55.36,173.85,55.85,173.93,55.76,174.53Zm104-41.31c.1-1.25.2-2.35-1.25-3.13-2.74-1.48-5.37-3.16-8-4.82a2,2,0,0,0-2.09-.14l-10.9,4.9a1.78,1.78,0,0,0-1.09,1.26c-.47,1.76-1,3.51-1.47,5.27-.41,1.49-.35,1.54,1.15,1.66,7.45.59,14.92,1,22.27,2.42.85.16,1.14-.13,1.11-1C159.47,137.52,159.67,135.37,159.8,133.22ZM87,135.49h.26c0,1.41,0,2.82,0,4.23,0,.77.27,1.06,1.07.86s1.63-.31,2.45-.43c6.62-1,13.3-1.48,20-1.93,1.2-.09,1.41-.47,1.07-1.53-.56-1.74-1.08-3.5-1.51-5.27a1.89,1.89,0,0,0-1.2-1.42q-5.48-2.42-10.91-4.9a1.71,1.71,0,0,0-1.76.05c-2.9,1.78-5.8,3.57-8.72,5.32a1.32,1.32,0,0,0-.74,1.4C87,133.07,87,134.28,87,135.49Z"/><path class="cls-2" d="M68.32,140.14a15.34,15.34,0,0,1,.7,3.74l-26.55,8.27-26.53,8.23c-2.71.84-5.42,1.66-8.13,2.51a1.94,1.94,0,0,1-1.09.1c1.86-.74,3.5-1.43,5.17-2.05,4.17-1.54,8.35-3.05,12.53-4.56,4.41-1.6,8.87-3.09,13.23-4.82,4.79-1.9,9.65-3.58,14.47-5.4C57.5,144.11,62.92,142.14,68.32,140.14Z"/><path class="cls-2" d="M66.57,130.9c.23,1.24.47,2.48.7,3.71-2.2.34-4.39.7-6.59,1-5.51.78-11,1.51-16.53,2.29-4.36.62-8.71,1.33-13.07,1.94s-9,1.17-13.48,1.79-8.72,1.27-13.08,1.9a11.23,11.23,0,0,1-2.47.11,29.5,29.5,0,0,1,2.88-.71c3.38-.49,6.71-1.26,10.06-1.91l16-3.1q7.45-1.46,14.9-2.88c5.91-1.14,11.82-2.24,17.72-3.4A9.14,9.14,0,0,0,66.57,130.9Z"/><path class="cls-2" d="M177.63,142.75a9.89,9.89,0,0,1,.64-3.61c5.7,2,11.41,3.92,17.12,5.9Q206.7,149,218,153c5.36,1.88,10.7,3.82,16.08,5.64a60.6,60.6,0,0,1,6.3,2.49c-3-.88-6-1.78-9-2.64s-6.2-1.66-9.25-2.63c-2.62-.83-5.27-1.59-7.91-2.36q-6.58-1.9-13.15-3.85c-3.79-1.11-7.57-2.25-11.36-3.36Z"/><path class="cls-2" d="M179.26,133.69a17.18,17.18,0,0,1,.73-3.56c4.53.82,9.06,1.67,13.59,2.46s9.35,1.54,14,2.35c4.22.74,8.42,1.55,12.64,2.3,5.06.9,10.13,1.76,15.19,2.67,2.74.5,5.46,1.05,8.19,1.64a38.12,38.12,0,0,1-6.12-.53c-3.11-.33-6.21-.74-9.32-1.14s-6-.8-8.94-1.18c-3.65-.45-7.3-.87-11-1.32l-10.42-1.31-9.19-1.18Z"/><path class="cls-2" d="M181,124.64a13.59,13.59,0,0,1,.71-3.62l30.1.42c6.92.1,13.85.08,20.76.33,3.82.14,7.64.06,11.45.15.74,0,1.39.42,2.21.07-.17.49-.41.39-.59.4-2.66.09-5.31.16-8,.26q-8.7.31-17.41.56c-4.14.12-8.28.32-12.42.49-5,.19-10,.25-15,.5C188.9,124.4,185,124.49,181,124.64Z"/><path class="cls-2" d="M64.8,122.13a7.73,7.73,0,0,1,.6,3.52,12,12,0,0,1-4.69.17c-3.66-.3-7.32,0-11-.19-6.85-.31-13.71-.06-20.56-.32-4.73-.17-9.47,0-14.2-.23-4-.24-8,0-12-.19A10.42,10.42,0,0,1,1,124.55c2-.25,4-.21,6.05-.29,3.73-.13,7.46-.33,11.19-.39,4.81-.08,9.62-.33,14.43-.5,4.31-.15,8.61-.36,12.92-.47,5.23-.14,10.44-.52,15.68-.54A22.49,22.49,0,0,0,64.8,122.13Z"/><path class="cls-2" d="M62.89,112.35A11.37,11.37,0,0,1,63.6,116c-1.72.25-3.3-.45-5-.72-4.63-.75-9.25-1.56-13.87-2.37-3.45-.6-6.88-1.26-10.33-1.87-6-1-12-2.07-18-3.13-3.32-.58-6.63-1.24-10-1.85-2.18-.4-4.36-.77-6.51-1.31l8.8,1c3.23.39,6.47.77,9.69,1.17L29,108.29c3.23.4,6.47.76,9.7,1.17s6.7.9,10.06,1.33c3.1.4,6.21.82,9.32,1.12C59.71,112.07,61.26,112.66,62.89,112.35Z"/><path class="cls-2" d="M182.87,115.1a21.68,21.68,0,0,1,.64-3.67c1.85.2,3.62-.41,5.43-.61,3.93-.45,7.84-1.07,11.76-1.63s7.57-1.14,11.36-1.68L223.45,106c2.57-.35,5.15-.68,7.72-1q5.73-.81,11.46-1.68a8.76,8.76,0,0,1,2.88-.17c-2.59.52-5.19,1.06-7.81,1.57-6.12,1.19-12.24,2.35-18.35,3.55-4.57.89-9.12,1.87-13.69,2.71-6,1.11-12,2.29-18.06,3.45A20.86,20.86,0,0,1,182.87,115.1Z"/><path class="cls-2" d="M60.85,101.55a23.69,23.69,0,0,1,.72,3.66,25.48,25.48,0,0,1-5.28-1.65c-5.85-2-11.66-4-17.48-6.08L20,90.89c-4.49-1.58-9-3.15-13.49-4.74A1,1,0,0,1,6,85.7c4.17,1.2,8.35,2.38,12.52,3.6,5.61,1.63,11.2,3.29,16.81,4.93s11,3.16,16.48,4.76c2.85.83,5.68,1.69,8.52,2.56C60.5,101.61,60.66,101.69,60.85,101.55Z"/><path class="cls-2" d="M185,104.11a13.8,13.8,0,0,1,.7-3.76,31.13,31.13,0,0,0,5.49-1.62c4.49-1.35,9-2.81,13.43-4.2l19-5.89c2.67-.82,5.36-1.59,8-2.41,2.42-.76,4.83-1.56,7.25-2.33a10.38,10.38,0,0,1,1-.21,28.24,28.24,0,0,1-5.22,2.16c-6.91,2.63-13.87,5.16-20.82,7.7-6.61,2.42-13.24,4.79-19.85,7.21-2.55.94-5.08,1.94-7.62,2.9C186,103.84,185.48,104,185,104.11Z"/><path class="cls-2" d="M58.26,88.59a9.42,9.42,0,0,1,.67,3.71c-2.58-1.09-5-2.55-7.44-3.87-5.12-2.72-10.22-5.49-15.32-8.25L15.11,68.75c-.35-.19-.76-.32-.89-.77l0,0a15.7,15.7,0,0,1,3.63,1.53c2.8,1.26,5.54,2.65,8.31,4C30.05,75.35,34,77.18,37.87,79c5.36,2.54,10.7,5.1,16.07,7.63A18.22,18.22,0,0,0,58.26,88.59Z"/><path class="cls-2" d="M187.5,91a11.82,11.82,0,0,1,.72-3.61,14,14,0,0,0,3.22-1.4l20.87-10.31,19.9-9.88a2.39,2.39,0,0,1,1.48-.45c-2.87,1.47-5.6,3-8.32,4.61-4.39,2.52-8.84,4.94-13.22,7.47-4,2.29-8,4.5-12,6.74-3.84,2.15-7.7,4.27-11.52,6.45A5.74,5.74,0,0,1,187.5,91Z"/><path class="cls-2" d="M80.7,61.77a7.16,7.16,0,0,1-2.58,1.31Q73.29,56,68.46,48.9L51.67,24.12a3.55,3.55,0,0,1-.28-.55l0,0c1.21.35,1.51,1.57,2.18,2.4,2.08,2.55,4,5.23,6,7.85l10,13.21L80,60.79C80.21,61.11,80.45,61.44,80.7,61.77Z"/><path class="cls-2" d="M167.72,62.88a9.51,9.51,0,0,1-2.35-1.21c1.37-1.9,2.72-3.82,4.11-5.71q4.25-5.72,8.52-11.42,7.47-10,15-20a7.93,7.93,0,0,1,1-.94v0c-.35,1.55-1.47,2.66-2.33,3.88-3.64,5.23-7,10.62-10.61,15.9-3.45,5.09-6.82,10.23-10.29,15.3A32.78,32.78,0,0,1,167.72,62.88Z"/><path class="cls-2" d="M178.67,68.3a12.69,12.69,0,0,1-2.49-1.13,75.81,75.81,0,0,1,6.06-6.23c5.06-5,10.16-10,15.25-15,3.63-3.57,7.29-7.11,10.93-10.66a3.79,3.79,0,0,1,1.41-1c-.63.72-1.25,1.46-1.89,2.17q-5.83,6.4-11.7,12.78c-1.85,2-3.74,4-5.6,6q-5.47,5.91-10.93,11.85C179.36,67.49,178.83,67.74,178.67,68.3Z"/><path class="cls-2" d="M69,67.51a3.71,3.71,0,0,1-2.3,1.17c-3.1-3.27-6.2-6.56-9.32-9.83-4.12-4.31-8.26-8.6-12.38-12.93-3.32-3.48-6.6-7-10-10.59a1.35,1.35,0,0,1,1,.56c2.81,2.7,5.6,5.41,8.43,8.08Q54,53,63.56,62c1.72,1.62,3.42,3.26,5.11,4.9A2.72,2.72,0,0,1,69,67.51Z"/><path class="cls-2" d="M168.94,189.34a12.62,12.62,0,0,1,.59-3.76c1.64,2,3,4.16,4.41,6.27,3.92,5.72,7.8,11.45,11.71,17.17q4.89,7.15,9.8,14.29a2.63,2.63,0,0,1,.24.7v0c-1.57-1.19-2.47-2.94-3.67-4.44-2.11-2.63-4-5.46-6.07-8.11-2.7-3.44-5.35-6.93-8-10.43q-4.31-5.73-8.65-11.43C169.25,189.46,169.07,189.42,168.94,189.34Z"/><path class="cls-2" d="M86.73,47.85a72,72,0,0,1,1.84,9.63A93.37,93.37,0,0,1,84,48.29c-1.37-3-2.83-5.94-4.22-8.92-4.24-9.08-8.54-18.13-12.65-27.28,1.11,2,2.23,4,3.33,6,1.82,3.36,3.61,6.74,5.42,10.11C79,33.92,82,39.64,85.11,45.32,85.59,46.19,85.82,47.25,86.73,47.85Z"/><path class="cls-2" d="M77.34,186.27a21.23,21.23,0,0,1,.66,3.54c-2.53,3.35-5.07,6.69-7.59,10.06Q65,207.06,59.69,214.26c-2.45,3.27-4.92,6.52-7.38,9.78-.18.24-.33.49-.68.45l0,0c2.66-4.35,5.62-8.5,8.44-12.74Q68,199.88,76,188C76.36,187.39,76.87,186.85,77.34,186.27Z"/><path class="cls-2" d="M158,56.74a84.6,84.6,0,0,1,2.15-10.09c.94-.69,1.22-1.82,1.74-2.76,2-3.68,3.92-7.43,5.89-11.15q3.44-6.44,6.9-12.86a64.07,64.07,0,0,1,3.76-6.79v0a25,25,0,0,1-2.71,6.19c-.88,1.58-1.46,3.27-2.24,4.87-2.94,6.09-5.76,12.24-8.63,18.37Q162,48.71,159,54.92C158.72,55.54,158.35,56.13,158,56.74Z"/><path class="cls-2" d="M85.93,195.22a7.7,7.7,0,0,1,2.22,1.37c-2.26,4.19-4.54,8.37-6.78,12.58-3,5.67-6,11.4-9.07,17a59.93,59.93,0,0,1-4.46,7.72Z"/><path class="cls-2" d="M158.74,196.56a6.25,6.25,0,0,1,2-1.37c1.55,2.27,2.44,4.87,3.65,7.3,2,3.91,3.72,7.91,5.59,11.85,2,4.3,4.11,8.57,6.14,12.86,1.14,2.42,2.23,4.86,3.35,7.29v0c-.88-.36-.93-1.31-1.3-2-3.77-6.88-7.46-13.79-11.17-20.7l-7.82-14.64A4.1,4.1,0,0,0,158.74,196.56Z"/><path class="cls-2" d="M190.55,74.46l-2.18-1.25a36.07,36.07,0,0,1,4.8-3.64C197,66.75,201,64,204.86,61.25c3.39-2.4,6.77-4.81,10.17-7.19,2.53-1.78,4.95-3.7,7.61-5.28l0,0a24.34,24.34,0,0,1-4.87,4.14c-4,3-7.75,6.25-11.69,9.29-3.73,2.87-7.33,5.9-11.08,8.74C193.47,72.07,192.08,73.35,190.55,74.46Z"/><path class="cls-2" d="M57,73.7c-.66.36-1.48.58-1.33,1.61a24.68,24.68,0,0,1-4.22-3C47.34,69.19,43.3,66,39.24,62.9L24.15,51.25c-.08-.06-.1-.2-.33-.68,1.68,1.14,3.1,2,4.42,3,4.3,3.27,8.92,6.05,13.32,9.17C46.43,66.22,51.38,69.58,56.3,73A5.51,5.51,0,0,1,57,73.7Z"/><path class="cls-2" d="M96.88,202.36a7.3,7.3,0,0,1,2.21,1.43c-1.09,3.05-2.19,6.1-3.26,9.17-2.44,7-4.86,14.09-7.31,21.13-.94,2.7-2,5.39-3,8.07.67-3.15,1.64-6.23,2.54-9.32l7.77-26.93C96.22,204.73,96.55,203.55,96.88,202.36Z"/><path class="cls-2" d="M147.9,203.57a6.5,6.5,0,0,1,1.86-1.15c1,1,1,2.41,1.39,3.64,2,6.57,3.89,13.17,5.82,19.76l4.2,14.26a.62.62,0,0,1-.14.52c-.95-2.66-1.92-5.31-2.86-8-1.49-4.23-2.95-8.47-4.44-12.7-1.88-5.31-3.83-10.59-5.52-16A1.52,1.52,0,0,0,147.9,203.57Z"/><path class="cls-2" d="M194.67,177.15c-1.07-1.86-1.06-2.06.25-2.7q8.79,6.72,17.59,13.47c3.49,2.68,6.93,5.42,10.38,8.13h0c-1.75-.51-3.07-1.75-4.52-2.74-6.33-4.32-12.6-8.72-18.89-13.09-1.39-1-2.79-1.93-4.17-2.9C195.12,177.16,194.94,177,194.67,177.15Z"/><path class="cls-2" d="M52.62,175.5A10,10,0,0,1,51.38,179c-1.38.32-2.29,1.41-3.39,2.17-4.27,3-8.45,6-12.69,9.06-3.44,2.45-6.91,4.86-10.56,7.06,1-.8,1.92-1.62,2.9-2.4q6.63-5.28,13.27-10.55c3.55-2.83,7.12-5.64,10.67-8.47C51.9,175.59,52.3,175.7,52.62,175.5Z"/><path class="cls-2" d="M108.74,210.06a5.41,5.41,0,0,1,1.94,1.29c-.77,1.5-.75,3.19-1.07,4.79-1,5.29-1.92,10.61-2.88,15.91-.8,4.45-1.64,8.89-2.47,13.33a1.71,1.71,0,0,1-.36.79q.5-4.11,1-8.22.57-4.41,1.17-8.82c.39-2.85.82-5.7,1.2-8.55s.7-5.73,1.07-8.59C108.42,211.34,108.6,210.71,108.74,210.06Z"/><path class="cls-2" d="M136.16,211.34a4.08,4.08,0,0,1,1.85-1.2c.87,1,.49,2.24.66,3.35.63,4,1,8,1.61,12,.8,5.28,1.14,10.63,2.17,15.89a13.92,13.92,0,0,1,.13,3.6c-.59-3.1-1.19-6.19-1.78-9.29q-1.06-5.7-2.11-11.42c-.74-4-1.45-8-2.16-12A2.32,2.32,0,0,0,136.16,211.34Z"/><path class="cls-2" d="M96.53,36.94a4.07,4.07,0,0,1-1.93.67q-1.86-6.13-3.73-12.27C89.55,21,88.38,16.58,87,12.25,86.16,9.84,85.62,7.36,85,4.88c.65,2.07,1.58,4,2.14,6.13s1.59,4.2,2.33,6.32c2.23,6.46,4.53,12.88,6.82,19.32A1,1,0,0,0,96.53,36.94Z"/><path class="cls-2" d="M151.55,37.51a4.52,4.52,0,0,1-1.79-.56c2-5.86,4-11.72,6.05-17.58,1.57-4.53,3.17-9.06,4.84-13.56-.53,2.91-1.49,5.71-2.3,8.54-1.86,6.53-3.72,13.05-5.66,19.55A14.73,14.73,0,0,1,151.55,37.51Z"/><path class="cls-2" d="M109.68,32.08c-.48.6-1.2.55-1.85.69-.42-3.26-.83-6.53-1.26-9.79-.35-2.58-.75-5.14-1.1-7.71-.39-2.9-.75-5.8-1.12-8.7a24.47,24.47,0,0,1-.29-4.46Q106.88,17.1,109.68,32.08Z"/><path class="cls-2" d="M138.51,32.71a3.22,3.22,0,0,1-1.88-.68A67.69,67.69,0,0,0,138,25.14c1-5.29,2-10.59,2.95-15.88.3-1.62.58-3.24.85-4.86a1.13,1.13,0,0,1,.54-.93c-.4,3.21-.74,6.33-1.18,9.42s-.86,6.2-1.19,9.31c-.27,2.62-.72,5.21-1.09,7.82C138.75,30.92,138.63,31.82,138.51,32.71Z"/><path class="cls-2" d="M38.41,167.18a5.44,5.44,0,0,1,1.84.94,47.65,47.65,0,0,1-6.14,3.19c-4.15,2.09-8.35,4.08-12.52,6.13-3,1.48-6.05,3-9.12,4.37,2-1.15,4-2.31,5.94-3.43q7.28-4.09,14.55-8.15Z"/><path class="cls-2" d="M207.84,167.12a7,7,0,0,1,1.81-.87c4,2.2,8.16,4.3,12.14,6.62s8,4.07,12,6.57c-1.27-.08-2-.82-2.88-1.22-4.88-2.26-9.75-4.56-14.62-6.84-2.46-1.16-4.92-2.3-7.37-3.47A7.73,7.73,0,0,1,207.84,167.12Z"/><path class="cls-2" d="M53.13,194.35A10,10,0,0,1,57,192.77a5.3,5.3,0,0,1-.66,1c-2.71,2.62-5.37,5.3-8.08,7.92-2,1.94-4.14,3.77-6.11,5.75a26.42,26.42,0,0,1-4,3.84l0,0c.63-1.69,2.1-2.72,3.24-4,3.74-4.18,7.62-8.23,11.44-12.33C53,194.8,53.25,194.64,53.13,194.35Z"/><path class="cls-2" d="M122.55,219.13c.49.13,1,.39,1.49.11a93.22,93.22,0,0,1-.21,10c0,.33,0,.66,0,1l-.27,16.06c0,.27-.06.54-.1.85-.54-.17-.34-.57-.35-.84-.1-5.23-.07-10.46-.31-15.68-.17-3.52-.06-7-.36-10.55A4.76,4.76,0,0,1,122.55,219.13Z"/><path class="cls-2" d="M124.06,27.48l-1.51,0c0-2.14-.14-4.29,0-6.42.31-3.44.07-6.88.24-10.31s.23-6.55.22-9.82c0-.31-.09-.67.28-.9.26.11.17.34.18.51.09,5.34,0,10.7.31,16C124,20.19,124,23.83,124.06,27.48Z"/><path class="cls-2" d="M192.93,193.85a12.53,12.53,0,0,1,3.58,1.45c-.16.28,0,.46.18.65,4.9,4.76,9.44,9.87,14.17,14.8a2.28,2.28,0,0,1,.3.53v0a26.55,26.55,0,0,1-4.3-3.84c-4.46-4.15-8.83-8.39-13.25-12.59C193.33,194.54,193,194.31,192.93,193.85Z"/><path class="cls-2" d="M38.17,211.29a3.87,3.87,0,0,1-1.55,1.53c.45-.58.75-1.29,1.57-1.51Z"/><path class="cls-2" d="M14.22,68A5.17,5.17,0,0,1,12,67a5.37,5.37,0,0,1,2.19,1Z"/><path class="cls-2" d="M222.89,196.05a2.69,2.69,0,0,1,1.15,1c-.55-.33-1.09-.37-1.13-1Z"/><path class="cls-2" d="M178.46,13.09a2.32,2.32,0,0,1,.63-1.12,1.15,1.15,0,0,1-.64,1.1Z"/><path class="cls-2" d="M195.94,224.27l.6.89-.11.06-.47-1Z"/><path class="cls-2" d="M50.25,21.77l.31.54C50.23,22.26,50.26,22,50.25,21.77Z"/><path class="cls-2" d="M51.39,23.57c-.16-.16-.4-.28-.34-.57,0,0,.08-.06.1-.05a.58.58,0,0,1,.22.64Z"/><path class="cls-2" d="M51.38,224.75c-.09.25,0,.57-.36.78l.37-.76Z"/><path class="cls-2" d="M24.15,198c0-.06-.09-.15-.07-.18s.13-.07.19-.1.09.15.07.19S24.21,197.92,24.15,198Z"/><path class="cls-2" d="M23.61,50.59c-.07,0-.16.08-.22,0s-.07-.12-.11-.19.16-.07.22-.05S23.58,50.52,23.61,50.59Z"/><path class="cls-2" d="M22.75,49.9l.09.16s-.07,0-.08,0a1.3,1.3,0,0,1-.1-.15Z"/><path class="cls-2" d="M222.9,48.52l.18-.11-.2.09Z"/><path class="cls-2" d="M179.47,234.49l.1.19-.09-.21Z"/><path class="cls-3" d="M65.37,125.64c.25-.06.16.12.17.23Z"/><path class="cls-2" d="M222.88,48.5a3.19,3.19,0,0,1-.26.26l0,0,.26-.26Z"/><path class="cls-2" d="M196,224.25l-.26-.26v0l.25.26Z"/><path class="cls-2" d="M51.39,224.77l.26-.26,0,0-.25.26Z"/><path class="cls-2" d="M193.94,23.57a.39.39,0,0,1,.06-.11h.07l-.14.1Z"/><polygon class="cls-2" points="211.16 211.28 211.2 211.32 211.17 211.26 211.16 211.28"/><path class="cls-2" d="M124.72,139.9a171,171,0,0,1,20.55,1.17,182.05,182.05,0,0,1,29.81,5.75c3.95,1.14,7.88,2.34,11.77,3.7,1.12.39,1.23.91,1,1.93-1.38,5.94-2.72,11.9-4.06,17.86q-.92,4.06-1.8,8.15c-.13.58-.28,1.12-1,.74-2.21-1.1-4.6-.94-7-1-2.79,0-5.57,0-8.36,0-.75,0-1.13.19-1.21,1-.11,1-.53,1.95-.55,2.93,0,2-1.1,3.13-2.71,4.19-11.65,7.69-23.23,15.49-34.85,23.22-3.07,2-3.1,2-6.22-.11Q102,197.08,83.84,184.72a2.75,2.75,0,0,1-1.41-2.19c-.09-1.11-.44-2.19-.6-3.3-.11-.76-.51-.93-1.19-.93-3.87,0-7.74,0-11.6,0a5.42,5.42,0,0,0-2.47.8c-1.14.58-1.55.17-1.79-.91-.81-3.52-1.65-7-2.48-10.56-1.16-5-2.29-10-3.49-14.93-.29-1.17-.22-1.82,1.13-2.29A177.79,177.79,0,0,1,82,144.27a210.6,210.6,0,0,1,27.26-3.83C114.09,140.08,118.91,139.88,124.72,139.9ZM95.51,178.25v.06c-2.62,0-5.24,0-7.86,0-.35,0-1-.23-1,.41.15,1,0,2.09,1.15,2.85q17.34,11.74,34.6,23.61a1.34,1.34,0,0,0,1.77-.05q16.32-10.94,32.68-21.78a4.9,4.9,0,0,0,2.59-3.91c.08-1,0-1.31-1.06-1.3-5.11,0-10.23,0-15.35,0a3.58,3.58,0,0,0-1.58.26,40.84,40.84,0,0,1-7.61,2.73c-8.14,2-16.3,2.17-24.17-.82a29.81,29.81,0,0,0-13.09-2.09C96.26,178.27,95.89,178.25,95.51,178.25Zm7-20.58c0-.66,0-1.33,0-2s-.17-1.18.66-1.21.78.62.82,1.13c.11,1.37.19,2.74.27,4.11,0,.55.23.81.86.72,1.19-.16,2.4-.26,3.6-.34.65-.05.84-.37.79-1q-.59-6.15-1.13-12.29c-.05-.63-.34-.87-1-.8-1.16.14-2.31.29-3.47.37-.73.05-1,.28-.92,1.07.14,1.07.15,2.16.21,3.23,0,.36,0,.68-.49.72s-.75,0-.8-.54a3.08,3.08,0,0,0-.16-.73c-.34-1.08.29-2.72-.71-3.2s-2.34.09-3.54.19c0,0-.08,0-.12,0-1.23-.1-1.4.58-1.28,1.62.37,3.34.7,6.69,1,10,.23,2.45.21,2.46,2.71,2.18C102.83,160.64,102.83,160.64,102.52,157.67Zm19-3.61h0v2.74c0,2.9,0,2.87,2.87,2.88.9,0,1.15-.31,1.12-1.16-.06-2-.08-3.9,0-5.86,0-.51-.33-1.43.41-1.45s.5.9.51,1.43c0,1.41,0,2.83,0,4.24,0,3,0,3,3,3,.91,0,1.11-.34,1.09-1.17,0-2,0-4,0-6,0-.47-.24-1.28.56-1.28s.45.77.46,1.21c0,1.45,0,2.91,0,4.36.05,3.4-.52,2.75,2.92,2.85.87,0,1.17-.28,1.16-1.15-.05-2.24,0-4.49,0-6.73,0-3.07-1.65-4.12-4.51-2.9a1.37,1.37,0,0,1-1.59-.08,2.89,2.89,0,0,0-3-.29c-.32.12-.7.48-1,.19-1-.82-2.08-.34-3.12-.47-.69-.1-1,.22-.94.92C121.56,150.9,121.54,152.48,121.54,154.06Zm-10.89-.17c0,1-.08,2,0,3,.23,2.3,1.21,3.13,3.52,3.07,1.16,0,2.32,0,3.48-.13,1.68-.11,2.3-.75,2.4-2.4.13-2.18.13-2.16-2-2.07-1.08.05-2.32-.2-2.09,1.59a.63.63,0,0,1-.63.66c-.43,0-.47-.38-.53-.71-.42-2.3-.2-2.57,2.11-2.6h.25c3.42-.14,2.87.45,2.78-3.07,0-1.94-.92-2.77-2.87-2.82-1.49,0-3,0-4.48.07a1.69,1.69,0,0,0-1.71,1.34A12.45,12.45,0,0,0,110.65,153.89Zm36.71-4.13c-.9-.07-1.44-.07-2-.16a1.77,1.77,0,0,0-2.23,1.46,22.5,22.5,0,0,0-.77,7.66,2.41,2.41,0,0,0,2.24,2.29,21.35,21.35,0,0,0,4.22.35,3.21,3.21,0,0,0,3-3.91c0-.19-.11-.33-.27-.37a11,11,0,0,0-3.47-.12c-.75.09-.36.9-.56,1.36s-.34.58-.72.58-.38-.25-.44-.5c-.43-2,.18-2.73,2.12-2.62h.12c1.07-.05,2.43.58,3.11-.06s.2-2.05.34-3.12a2.11,2.11,0,0,0-1.54-2.39A13.3,13.3,0,0,0,147.36,149.76Zm-7.42-3.82h-.62c-1.69,0-1.67,0-1.76,1.68-.16,3.2-.33,6.4-.54,9.59-.18,2.86-.2,2.82,2.74,3.08,1,.09,1.21-.17,1.26-1.1.21-3.73.48-7.47.77-11.19C142,145.93,142,145.93,139.94,145.94Zm-36.5,25.47a7.62,7.62,0,0,0,4.29-1.4,3.73,3.73,0,0,0,1.37-4.11,3.5,3.5,0,0,0-2.73-3,12.83,12.83,0,0,0-4.58-.14c-.73.09-1,.43-.91,1.16.19,2,.3,4.06.48,6.08C101.5,171.57,101.52,171.57,103.44,171.41Zm24.93-5.69c.63-.7,1.62-1.25,1.27-2.28a2.66,2.66,0,0,0-2.69-1.65c-1.07,0-2.15,0-3.23-.06-.58,0-.81.21-.8.81,0,2.32,0,4.65,0,7,0,.6.24.82.81.81,1.37,0,2.75,0,4.11,0a2.39,2.39,0,0,0,2.19-2.87C129.82,166.54,128.92,166.35,128.37,165.72Zm11.61.82a4.36,4.36,0,1,0-4.49,4.36A4.38,4.38,0,0,0,140,166.54Zm16.52,3.28a4.42,4.42,0,0,0,4.36,4.48,4.45,4.45,0,0,0,.08-8.9A4.46,4.46,0,0,0,156.5,169.82Zm-.85-4.93c-.37-.94-1-.92-1.61-.33a6,6,0,0,1-1.68,1c-.41.17-.78.73-1.21.46s-.06-.84-.09-1.28.63-1.31-.42-1.31c-.72,0-1.83-.47-2,1-.23,2.14-.54,4.28-.86,6.42-.09.65,0,1,.75,1.07,1.54.25,1.57.27,1.67-1.32,0-.58,0-1.16,0-1.74,0-.42-.21-1,.44-1.12s.74.43.93.86c.55,1.24,1.12,2.47,1.66,3.71.21.47.55.66.91.26s1.46-.28,1-1.17a34.92,34.92,0,0,0-1.66-3.69c-.58-.85-.6-1.5.55-1.9A8.62,8.62,0,0,0,155.65,164.89Zm-38.78,5.8c-.19-1.06-.61-1.33-1.31-1.25-.53.05-1.07.06-1.61.08s-.87-.14-.85-.67c0-.73-.29-1.5.2-2.17.13-.17.43,0,.55.13.74.91,1.26.3,1.82-.22.31-.29.77-.56.24-1s-.63-1.31-1.56-.8c-1.17.63-1.22.56-1.3-.79-.06-.91.25-1.32,1.19-1.24a10.28,10.28,0,0,0,1.24,0c.44,0,.58-.36.6-.67,0-.46-.41-.31-.65-.31-1.28,0-2.57.12-3.86.12-.74,0-1,.24-1,1,.16,2.32.28,4.65.39,7,0,.55.18.83.81.81C113.45,170.67,115.11,170.69,116.87,170.69Zm-33.26,3.53c1.67,0,1.83-.15,1.49-1.77-.12-.53-.28-1-.4-1.57-.07-.28-.21-.61.08-.8s.48,0,.68.18c1,.76,1.15-.37,1.63-.72s.26-.7-.14-1-1-1-1.65-.15c-.21.26-.6.68-.89.25a2.85,2.85,0,0,1-.39-1.92c.06-.56.65-.4,1-.52a9.73,9.73,0,0,1,1.1-.22.59.59,0,0,0,.48-.75c-.09-.49-.44-.22-.69-.16-1.21.27-2.42.57-3.64.83-.63.13-.93.36-.77,1.09.45,2.16.83,4.33,1.22,6.49C82.83,174,83.09,174.29,83.61,174.22Zm11.58-3.54c-.43,0-.8,0-1.17,0A2.82,2.82,0,0,1,90.77,168c-.29-1.89.34-2.74,2.4-3.19a3.7,3.7,0,0,0,.48-.09c.52-.19.37-.48.07-.73a1.3,1.3,0,0,0-1-.15,4.48,4.48,0,0,0-4.32,4.45c0,2.55,1.72,4.13,4.39,4.21C94.15,172.58,95,172.23,95.19,170.68Zm51.08-6.52c.45-.07,1.17.28,1.2-.46s-.7-.39-1.09-.44c-1.48-.2-3-.35-4.45-.49-.29,0-.76-.28-.86.12s.33.73.78.74c.77,0,.86.45.8,1.09-.17,1.85-.24,3.73-.49,5.57-.18,1.34.76,1,1.39,1.09s1.16.06,1.17-.88c0-1.74.21-3.48.3-5.22C145.06,164.45,145.24,163.85,146.27,164.16Zm-31.64-16.34c.36-.06.78-.11,1.18-.21a1.9,1.9,0,0,0,1.29-2c0-.79-.94-.24-1.44-.29-.76-.08-1.9,1.55-1.69,2.27C114.08,147.92,114.36,147.78,114.63,147.82ZM147,146.71c-.28.21-1-.42-1.08.4-.07,1.1,1.83,2.49,2.89,2.21.23-.06.33-.15.33-.41A2.14,2.14,0,0,0,147,146.71Z"/><path class="cls-2" d="M169.88,124.16l3-15.73c1.62-8.58,3.21-17.16,4.88-25.72a1.72,1.72,0,0,0-1-2.24c-7-3.61-14-7.29-21-10.92a1.25,1.25,0,0,1-.8-1.58,22.53,22.53,0,0,0,.48-2.58c.11-1.08.54-1.24,1.46-.75,2.6,1.4,5.22,2.75,7.84,4.12,5.89,3.07,11.78,6.16,17.7,9.2.83.43,1,.86.79,1.76-1.42,7.34-2.77,14.7-4.15,22q-2.66,14-5.32,28.05c-.77,4.12-1.54,8.24-2.27,12.37-.13.73-.39,1-1.16.85-1.9-.45-3.8-.89-5.71-1.29-.81-.17-.79-.63-.69-1.29a41.26,41.26,0,0,0-1.72-20.05,40,40,0,0,0-14.31-19.64,38.88,38.88,0,0,0-27.65-8c-16.07,1.59-27.54,10-34.33,24.57A38.27,38.27,0,0,0,83,139.94c.26,1.58.19,1.65-1.38,1.95-1.79.34-3.6.63-5.35,1.14-1,.31-1.24-.09-1.39-.91-.58-3.1-1.2-6.2-1.78-9.3-.92-4.9-1.82-9.8-2.73-14.71q-1.91-10.35-3.82-20.7Q65,89,63.35,80.64c-.41-2.1-.47-2.09,1.4-3Q77.32,71.4,89.87,65.14c.87-.44,1.17-.41,1.39.61.79,3.67.82,3.66-2.56,5.34-6.44,3.2-12.87,6.42-19.32,9.59a1.23,1.23,0,0,0-.79,1.63c1.9,10,3.74,20.1,5.61,30.15.85,4.55,1.75,9.1,2.44,13.63a14,14,0,0,0,.39-1.41,46.09,46.09,0,0,1,8-18.62,47,47,0,0,1,12.43-12,1.39,1.39,0,0,0,.73-1.71c-1.59-8.24-3.12-16.49-4.68-24.74C92.09,60,90.66,52.38,89.17,44.75c-.18-.92,0-1.35.88-1.68q16.2-6.15,32.39-12.35a2.15,2.15,0,0,1,1.67,0q16,6.18,32,12.3c1,.39,1.31.86,1.11,1.93Q154.41,59.8,151.7,74.7c-1.07,5.84-2.09,11.7-3.18,17.54a1.49,1.49,0,0,0,.78,1.8,47,47,0,0,1,20,28.18A5.15,5.15,0,0,0,169.88,124.16ZM144.73,91.25c.75-4,1.51-8,2.22-11.92,1.06-5.84,2.06-11.7,3.12-17.54q1.35-7.41,2.78-14.81c.15-.8-.16-1.12-.84-1.38Q138.15,40.31,124.33,35a2.77,2.77,0,0,0-2.15,0q-13.91,5.33-27.85,10.58A1,1,0,0,0,93.58,47c.43,2.11.77,4.24,1.17,6.37q2.82,14.87,5.65,29.74c.52,2.75,1,5.5,1.58,8.28C116.27,84.68,130.46,84.7,144.73,91.25Z"/><path class="cls-2" d="M124.07,112.89c0-1.88,0-3.75,0-5.62a1.9,1.9,0,0,1,.8-1.81q4.26-3,8.44-6.2a1.87,1.87,0,0,1,1.86-.32,32,32,0,0,1,15.82,11,2.39,2.39,0,0,1,.46,2.2c-.72,3.15-1.45,6.31-2.12,9.48a2.42,2.42,0,0,1-1.6,2c-3.43,1.47-6.81,3.06-10.19,4.67A2.11,2.11,0,0,1,135,128c-3.29-2.53-6.6-5-9.95-7.49a2.22,2.22,0,0,1-1-2.09c.06-1.82,0-3.66,0-5.48Z"/><path class="cls-2" d="M122.6,113c0,2,0,3.91,0,5.87a1.6,1.6,0,0,1-.71,1.46q-5.2,3.85-10.35,7.79a2,2,0,0,1-2.31.2q-5.37-2.49-10.76-4.93a1.57,1.57,0,0,1-.94-1.22c-.78-3.49-1.52-7-2.35-10.46a1.74,1.74,0,0,1,.46-1.58,31.67,31.67,0,0,1,16-11.16,1.79,1.79,0,0,1,1.75.31q4.27,3.21,8.62,6.35a1.51,1.51,0,0,1,.63,1.39c0,2,0,4,0,6Z"/><path class="cls-2" d="M197.22,192.86l-2.48-1q-8.27-3.33-16.52-6.66c-.37-.15-.95-.19-1-.63s.51-.58.85-.78c1.41-.81,2.82-1.6,4.25-2.36a1.54,1.54,0,0,0,.85-1.13c1.66-7.16,3.38-14.31,5-21.47.26-1.14.68-1.21,1.6-.82,5,2.12,10,4.21,15,6.33.39.17,1,.18,1,.73s-.62.6-1,.82c-4.44,2.61-8.87,5.23-13.34,7.79-.73.42-.76.76-.49,1.47q3.24,8.31,6.39,16.63C197.56,192.15,198,192.64,197.22,192.86Z"/><path class="cls-2" d="M55.76,174.53c.09-.6-.4-.68-.74-.88L41.63,166a6,6,0,0,1-.64-.38c-.23-.16-.61-.25-.57-.59s.38-.42.65-.53l6.81-2.72c2.93-1.18,5.86-2.34,8.78-3.55.94-.39,1.38-.45,1.67.81,1.67,7.07,3.46,14.1,5.17,21.16a2.34,2.34,0,0,0,1.31,1.67c1.25.64,2.45,1.39,3.67,2.11.31.18.81.28.79.69s-.52.47-.85.6l-9.13,3.65-8.92,3.53c-.37.14-.79.51-1.13.16s.06-.69.18-1q3-8.17,6.08-16.34Z"/><path class="cls-2" d="M159.8,133.22c-.13,2.15-.33,4.3-.27,6.46,0,.83-.26,1.12-1.11,1-7.35-1.46-14.82-1.83-22.27-2.42-1.5-.12-1.56-.17-1.15-1.66.48-1.76,1-3.51,1.47-5.27a1.78,1.78,0,0,1,1.09-1.26l10.9-4.9a2,2,0,0,1,2.09.14c2.63,1.66,5.26,3.34,8,4.82C160,130.87,159.9,132,159.8,133.22Z"/><path class="cls-2" d="M87,135.49c0-1.21,0-2.42,0-3.62a1.32,1.32,0,0,1,.74-1.4c2.92-1.75,5.82-3.54,8.72-5.32a1.71,1.71,0,0,1,1.76-.05q5.43,2.49,10.91,4.9a1.89,1.89,0,0,1,1.2,1.42c.43,1.77.95,3.53,1.51,5.27.34,1.06.13,1.44-1.07,1.53-6.67.45-13.35.94-20,1.93-.82.12-1.65.23-2.45.43s-1.08-.09-1.07-.86c0-1.41,0-2.82,0-4.23Z"/><path class="cls-1" d="M95.51,178.25c.38,0,.75,0,1.12,0a29.81,29.81,0,0,1,13.09,2.09c7.87,3,16,2.82,24.17.82a40.84,40.84,0,0,0,7.61-2.73,3.58,3.58,0,0,1,1.58-.26c5.12,0,10.24,0,15.35,0,1.08,0,1.14.32,1.06,1.3a4.9,4.9,0,0,1-2.59,3.91q-16.4,10.81-32.68,21.78a1.34,1.34,0,0,1-1.77.05q-17.28-11.83-34.6-23.61c-1.12-.76-1-1.84-1.15-2.85-.09-.64.6-.4,1-.41,2.62,0,5.24,0,7.86,0Z"/><path class="cls-1" d="M102.52,157.67c.31,3,.31,3-2.65,3.31-2.5.28-2.48.27-2.71-2.18-.31-3.35-.64-6.7-1-10-.12-1,0-1.72,1.28-1.62,0,0,.08,0,.12,0,1.2-.1,2.61-.63,3.54-.19s.37,2.12.71,3.2a3.08,3.08,0,0,1,.16.73c.05.52.39.57.8.54s.51-.36.49-.72c-.06-1.07-.07-2.16-.21-3.23-.11-.79.19-1,.92-1.07,1.16-.08,2.31-.23,3.47-.37.63-.07.92.17,1,.8q.55,6.15,1.13,12.29c0,.61-.14.93-.79,1-1.2.08-2.41.18-3.6.34-.63.09-.83-.17-.86-.72-.08-1.37-.16-2.74-.27-4.11,0-.51,0-1.17-.82-1.13s-.65.69-.66,1.21S102.52,157,102.52,157.67Z"/><path class="cls-1" d="M121.54,154.06c0-1.58,0-3.16,0-4.74,0-.7.25-1,.94-.92,1,.13,2.16-.35,3.12.47.34.29.72-.07,1-.19a2.89,2.89,0,0,1,3,.29,1.37,1.37,0,0,0,1.59.08c2.86-1.22,4.47-.17,4.51,2.9,0,2.24,0,4.49,0,6.73,0,.87-.29,1.17-1.16,1.15-3.44-.1-2.87.55-2.92-2.85,0-1.45,0-2.91,0-4.36,0-.44.26-1.2-.46-1.21s-.55.81-.56,1.28c0,2,0,4,0,6,0,.83-.18,1.16-1.09,1.17-3,0-3,0-3-3,0-1.41,0-2.83,0-4.24,0-.53.25-1.46-.51-1.43s-.4.94-.41,1.45c0,2,0,3.91,0,5.86,0,.85-.22,1.17-1.12,1.16-2.87,0-2.87,0-2.87-2.88v-2.74Z"/><path class="cls-1" d="M110.65,153.89a12.45,12.45,0,0,1,.24-4.08,1.69,1.69,0,0,1,1.71-1.34c1.5,0,3-.11,4.48-.07,2,0,2.82.88,2.87,2.82.09,3.52.64,2.93-2.78,3.07h-.25c-2.31,0-2.53.3-2.11,2.6.06.33.1.72.53.71a.63.63,0,0,0,.63-.66c-.23-1.79,1-1.54,2.09-1.59,2.13-.09,2.13-.11,2,2.07-.1,1.65-.72,2.29-2.4,2.4-1.16.08-2.32.1-3.48.13-2.31.06-3.29-.77-3.52-3.07C110.57,155.89,110.65,154.89,110.65,153.89Zm4-2.13c0,.51.14.86.73.86a.61.61,0,0,0,.67-.69.88.88,0,0,0-.87-1C114.64,150.92,114.63,151.35,114.63,151.76Z"/><path class="cls-1" d="M147.36,149.76a13.3,13.3,0,0,1,3.21.45,2.11,2.11,0,0,1,1.54,2.39c-.14,1.07.34,2.48-.34,3.12s-2,0-3.11.06h-.12c-1.94-.11-2.55.65-2.12,2.62.06.25.13.5.44.5s.56-.25.72-.58-.19-1.27.56-1.36a11,11,0,0,1,3.47.12c.16,0,.23.18.27.37a3.21,3.21,0,0,1-3,3.91,21.35,21.35,0,0,1-4.22-.35,2.41,2.41,0,0,1-2.24-2.29,22.5,22.5,0,0,1,.77-7.66,1.77,1.77,0,0,1,2.23-1.46C145.92,149.69,146.46,149.69,147.36,149.76Zm.72,3.53c0-.52-.08-1-.67-1s-.51.53-.58.91.12.78.65.78S148.1,153.68,148.08,153.29Z"/><path class="cls-1" d="M139.94,145.94c2.06,0,2,0,1.85,2.06-.29,3.72-.56,7.46-.77,11.19-.05.93-.31,1.19-1.26,1.1-2.94-.26-2.92-.22-2.74-3.08.21-3.19.38-6.39.54-9.59.09-1.67.07-1.67,1.76-1.68Z"/><path class="cls-1" d="M103.44,171.41c-1.92.16-1.94.16-2.08-1.44-.18-2-.29-4.06-.48-6.08-.06-.73.18-1.07.91-1.16a12.83,12.83,0,0,1,4.58.14,3.5,3.5,0,0,1,2.73,3,3.73,3.73,0,0,1-1.37,4.11A7.62,7.62,0,0,1,103.44,171.41Zm3.19-4.56c0-2.06-1-3.4-2.54-3.52-.72-.06-1.1.13-1,.95.22,1.81.42,3.61.57,5.42.08.92.56.94,1.16.58A3.64,3.64,0,0,0,106.63,166.85Z"/><path class="cls-1" d="M128.37,165.72c.55.63,1.45.82,1.64,1.7a2.39,2.39,0,0,1-2.19,2.87c-1.36.06-2.74,0-4.11,0-.57,0-.81-.21-.81-.81,0-2.32,0-4.65,0-7,0-.6.22-.83.8-.81,1.08,0,2.16,0,3.23.06a2.66,2.66,0,0,1,2.69,1.65C130,164.47,129,165,128.37,165.72Zm-3.32-1.7c.27.54-.48,1.6.75,1.58a1.55,1.55,0,0,0,1.65-1.53c0-1-.76-1.48-1.65-1.53C124.62,162.49,125.27,163.49,125.05,164Zm.72,2.44c-.16,0-.42,0-.47.24a7.45,7.45,0,0,0,0,2.58c0,.21.27.27.49.29a1.79,1.79,0,0,0,1.75-1.6A1.87,1.87,0,0,0,125.77,166.46Z"/><path class="cls-1" d="M140,166.54a4.36,4.36,0,1,1-8.71-.15,4.36,4.36,0,1,1,8.71.15Zm-2.59.4a5.87,5.87,0,0,0-.87-3.32,1.21,1.21,0,0,0-2.25.09,6.31,6.31,0,0,0,.61,5.67,1.13,1.13,0,0,0,2-.17A4.17,4.17,0,0,0,137.39,166.94Z"/><path class="cls-1" d="M156.5,169.82a4.46,4.46,0,0,1,4.44-4.42,4.45,4.45,0,0,1-.08,8.9A4.42,4.42,0,0,1,156.5,169.82Zm6.07,0a5.29,5.29,0,0,0-.44-2.39,1.52,1.52,0,0,0-1.25-1.08,1.26,1.26,0,0,0-1.3,1,5.73,5.73,0,0,0,.3,5.38c.58,1,1.6.85,2.16-.17A5.14,5.14,0,0,0,162.57,169.79Z"/><path class="cls-1" d="M155.65,164.89a8.62,8.62,0,0,1-1.56.94c-1.15.4-1.13,1-.55,1.9a34.92,34.92,0,0,1,1.66,3.69c.46.89-.65.79-1,1.17s-.7.21-.91-.26c-.54-1.24-1.11-2.47-1.66-3.71-.19-.43-.41-.93-.93-.86s-.41.7-.44,1.12c0,.58,0,1.16,0,1.74-.1,1.59-.13,1.57-1.67,1.32-.74-.11-.84-.42-.75-1.07.32-2.14.63-4.28.86-6.42.16-1.45,1.27-1,2-1,1.05,0,.39.84.42,1.31s-.35,1,.09,1.28.8-.29,1.21-.46a6,6,0,0,0,1.68-1C154.7,164,155.28,164,155.65,164.89Z"/><path class="cls-1" d="M116.87,170.69c-1.76,0-3.42,0-5.07,0-.63,0-.78-.26-.81-.81-.11-2.32-.23-4.65-.39-7-.06-.77.23-1,1-1,1.29,0,2.58-.09,3.86-.12.24,0,.67-.15.65.31,0,.31-.16.66-.6.67a10.28,10.28,0,0,1-1.24,0c-.94-.08-1.25.33-1.19,1.24.08,1.35.13,1.42,1.3.79.93-.51,1.1.45,1.56.8s.07.66-.24,1c-.56.52-1.08,1.13-1.82.22-.12-.15-.42-.3-.55-.13-.49.67-.19,1.44-.2,2.17,0,.53.38.68.85.67s1.08,0,1.61-.08C116.26,169.36,116.68,169.63,116.87,170.69Z"/><path class="cls-1" d="M83.61,174.22c-.52.07-.78-.18-.88-.74-.39-2.16-.77-4.33-1.22-6.49-.16-.73.14-1,.77-1.09,1.22-.26,2.43-.56,3.64-.83.25-.06.6-.33.69.16a.59.59,0,0,1-.48.75,9.73,9.73,0,0,0-1.1.22c-.36.12-1,0-1,.52a2.85,2.85,0,0,0,.39,1.92c.29.43.68,0,.89-.25.66-.84,1.13-.23,1.65.15s.6.66.14,1-.65,1.48-1.63.72c-.2-.15-.45-.34-.68-.18s-.15.52-.08.8c.12.52.28,1,.4,1.57C85.44,174.07,85.28,174.25,83.61,174.22Z"/><path class="cls-1" d="M95.19,170.68c-.16,1.55-1,1.9-2.35,1.86-2.67-.08-4.37-1.66-4.39-4.21a4.48,4.48,0,0,1,4.32-4.45,1.3,1.3,0,0,1,1,.15c.3.25.45.54-.07.73a3.7,3.7,0,0,1-.48.09c-2.06.45-2.69,1.3-2.4,3.19A2.82,2.82,0,0,0,94,170.68C94.39,170.66,94.76,170.68,95.19,170.68Z"/><path class="cls-1" d="M146.27,164.16c-1-.31-1.21.29-1.25,1.12-.09,1.74-.27,3.48-.3,5.22,0,.94-.46,1-1.17.88s-1.57.25-1.39-1.09c.25-1.84.32-3.72.49-5.57.06-.64,0-1.07-.8-1.09-.45,0-.9-.24-.78-.74s.57-.15.86-.12c1.49.14,3,.29,4.45.49.39.05,1.11-.18,1.09.44S146.72,164.09,146.27,164.16Z"/><path class="cls-1" d="M114.63,147.82c-.27,0-.55.1-.66-.26-.21-.72.93-2.35,1.69-2.27.5.05,1.43-.5,1.44.29a1.9,1.9,0,0,1-1.29,2C115.41,147.71,115,147.76,114.63,147.82Z"/><path class="cls-1" d="M147,146.71a2.14,2.14,0,0,1,2.14,2.2c0,.26-.1.35-.33.41-1.06.28-3-1.11-2.89-2.21C146,146.29,146.71,146.92,147,146.71Z"/><path class="cls-1" d="M144.73,91.25c-14.27-6.55-28.46-6.57-42.75.12-.53-2.78-1.06-5.53-1.58-8.28q-2.84-14.86-5.65-29.74c-.4-2.13-.74-4.26-1.17-6.37a1,1,0,0,1,.75-1.42Q108.27,40.29,122.18,35a2.77,2.77,0,0,1,2.15,0Q138.14,40.32,152,45.6c.68.26,1,.58.84,1.38q-1.44,7.4-2.78,14.81C149,67.63,148,73.49,147,79.33,146.24,83.29,145.48,87.24,144.73,91.25Zm-5.45-33.39c2.89-.82,3.76-2.92,4.17-5.25s.63-5-1.63-6.77a8.84,8.84,0,0,0-5.42-2c-5.82-.11-11.64-.06-17.47-.07-.36,0-.81,0-.89.46s.3.53.6.69a2.9,2.9,0,0,1,1.66,2.61c0,2.83,0,5.65,0,8.48,0,.49-.14.79-.71.78-1.83,0-3.66,0-5.49,0-.56,0-.69-.3-.68-.79,0-2.75,0-5.49,0-8.23A2.69,2.69,0,0,1,115,45.12c.37-.16.88-.28.74-.83s-.7-.5-1.14-.5H102.52c-.4,0-.89-.09-1,.48s.28.69.7.85a3.13,3.13,0,0,1,1.89,2.17,6.94,6.94,0,0,1,.15,2.22c0,6.33,0,12.65,0,19,0,1.79-.17,3.55-2.29,4.23a.63.63,0,0,0-.39.82c.13.58.61.45,1,.45q6.11,0,12.23,0c.44,0,1,.12,1.11-.51s-.33-.7-.71-.88A2.75,2.75,0,0,1,113.51,70c-.05-3.2,0-6.41-.05-9.61,0-.49.12-.77.7-.76,1.79,0,3.58,0,5.37,0,.48,0,.8.13.8.69,0,3.32.14,6.65-.12,10a2.71,2.71,0,0,1-1.49,2.29c-.36.19-.87.3-.73.85s.71.46,1.14.46c3.49,0,7,.08,10.48,0,3.11-.06,6.23.23,9.32-.42a7.81,7.81,0,0,0,4.93-12.31C142.79,59.62,141.19,58.8,139.28,57.86Zm-17.38,21c-.64-1.8-.64-1.81-2.55-1.84-.91,0-1.83,0-2.74,0s-1.11.28-1.08,1.09c.06,1.74.1,3.49.07,5.23,0,.95.54,1,1.21,1s1.3.06,1.29-1c0-1.88.06-1.88,2-1.88.12,0,.25,0,.37,0,.69.07,1.11-.13,1.11-.93s-.33-1-1.07-1-1.5,0-2.39,0A.77.77,0,0,1,119,79c.79,0,1.71.2,2.32-.13,1-.54.8.08.82.57,0,1.12,0,2.24.06,3.36a1.39,1.39,0,0,0,1.41,1.45c1.32,0,2.66,0,4,0,.48,0,.73-.23.8-.75.15-1.23-.55-1.32-1.51-1.3-2.3,0-2.3,0-2.3-1.58s0-1.61,1.61-1.62c.37,0,.75,0,1.12,0,.71,0,1.07-.17,1.08-1s-.28-1.13-1.1-1.08-1.74,0-2.62,0C123.38,77,122,76.71,121.9,78.81Z"/><path class="cls-3" d="M114.63,151.76c0-.41,0-.84.53-.81a.88.88,0,0,1,.87,1,.61.61,0,0,1-.67.69C114.77,152.62,114.58,152.27,114.63,151.76Z"/><path class="cls-3" d="M148.08,153.29c0,.39-.1.68-.6.68s-.74-.26-.65-.78,0-.91.58-.91S148.07,152.77,148.08,153.29Z"/><path class="cls-3" d="M106.63,166.85a3.64,3.64,0,0,1-1.81,3.43c-.6.36-1.08.34-1.16-.58-.15-1.81-.35-3.61-.57-5.42-.1-.82.28-1,1-.95C105.65,163.45,106.62,164.79,106.63,166.85Z"/><path class="cls-3" d="M125.05,164c.22-.53-.43-1.53.75-1.48.89.05,1.67.52,1.65,1.53a1.55,1.55,0,0,1-1.65,1.53C124.57,165.62,125.32,164.56,125.05,164Z"/><path class="cls-3" d="M125.77,166.46a1.87,1.87,0,0,1,1.77,1.51,1.79,1.79,0,0,1-1.75,1.6c-.22,0-.46-.08-.49-.29a7.45,7.45,0,0,1,0-2.58C125.35,166.49,125.61,166.45,125.77,166.46Z"/><path class="cls-3" d="M137.39,166.94a4.17,4.17,0,0,1-.49,2.27,1.13,1.13,0,0,1-2,.17,6.31,6.31,0,0,1-.61-5.67,1.21,1.21,0,0,1,2.25-.09A5.87,5.87,0,0,1,137.39,166.94Z"/><path class="cls-3" d="M162.57,169.79a5.14,5.14,0,0,1-.53,2.7c-.56,1-1.58,1.13-2.16.17a5.73,5.73,0,0,1-.3-5.38,1.26,1.26,0,0,1,1.3-1,1.52,1.52,0,0,1,1.25,1.08A5.29,5.29,0,0,1,162.57,169.79Z"/><path class="cls-2" d="M139.28,57.86c1.91.94,3.51,1.76,4.58,3.36a7.81,7.81,0,0,1-4.93,12.31c-3.09.65-6.21.36-9.32.42-3.5.06-7,0-10.48,0-.43,0-1,.16-1.14-.46s.37-.66.73-.85a2.71,2.71,0,0,0,1.49-2.29c.26-3.33.07-6.66.12-10,0-.56-.32-.69-.8-.69-1.79,0-3.58,0-5.37,0-.58,0-.7.27-.7.76,0,3.2,0,6.41.05,9.61a2.75,2.75,0,0,0,1.67,2.57c.38.18.82.35.71.88s-.67.51-1.11.51q-6.12,0-12.23,0c-.4,0-.88.13-1-.45a.63.63,0,0,1,.39-.82c2.12-.68,2.28-2.44,2.29-4.23,0-6.32,0-12.64,0-19a6.94,6.94,0,0,0-.15-2.22,3.13,3.13,0,0,0-1.89-2.17c-.42-.16-.8-.32-.7-.85s.6-.48,1-.48h12.11c.44,0,1-.07,1.14.5s-.37.67-.74.83a2.69,2.69,0,0,0-1.54,2.65c-.06,2.74,0,5.48,0,8.23,0,.49.12.8.68.79,1.83,0,3.66,0,5.49,0,.57,0,.71-.29.71-.78,0-2.83,0-5.65,0-8.48a2.9,2.9,0,0,0-1.66-2.61c-.3-.16-.66-.28-.6-.69s.53-.46.89-.46c5.83,0,11.65,0,17.47.07a8.84,8.84,0,0,1,5.42,2c2.26,1.82,2.05,4.33,1.63,6.77S142.17,57,139.28,57.86Zm-3.53,6.39c0-2-1.21-3.64-3.88-4.45-.84-.25-1.11,0-1.08.83.07,2.54.06,5.08.12,7.61a4.87,4.87,0,0,0,.24,1.47c.24.67.56,1.36,1.4,1.43a1.76,1.76,0,0,0,1.71-1A10.72,10.72,0,0,0,135.75,64.25Zm-5-12.46h0c0,1.41,0,2.82,0,4.23,0,1.22.16,1.3,1.25.68a6,6,0,0,0,1.27-9.09,3.52,3.52,0,0,0-1.45-.93c-.7-.2-1.11-.13-1.08.76C130.81,48.89,130.78,50.34,130.78,51.79Z"/><path class="cls-2" d="M121.9,78.81c.07-2.1,1.48-1.84,2.74-1.82.88,0,1.75,0,2.62,0s1.11.27,1.1,1.08-.37,1-1.08,1c-.37,0-.75,0-1.12,0-1.62,0-1.62,0-1.61,1.62s0,1.63,2.3,1.58c1,0,1.66.07,1.51,1.3-.07.52-.32.75-.8.75-1.33,0-2.67,0-4,0a1.39,1.39,0,0,1-1.41-1.45c-.06-1.12,0-2.24-.06-3.36,0-.49.16-1.11-.82-.57-.61.33-1.53.1-2.32.13a.77.77,0,0,0-.87.5c.89,0,1.64,0,2.39,0s1.06.18,1.07,1-.42,1-1.11.93c-.12,0-.25,0-.37,0-1.91,0-2,0-2,1.88,0,1.06-.62,1-1.29,1s-1.23,0-1.21-1c0-1.74,0-3.49-.07-5.23,0-.81.27-1.13,1.08-1.09s1.83,0,2.74,0C121.26,77,121.26,77,121.9,78.81Z"/><path class="cls-1" d="M135.75,64.25a10.72,10.72,0,0,1-1.49,5.87,1.76,1.76,0,0,1-1.71,1c-.84-.07-1.16-.76-1.4-1.43a4.87,4.87,0,0,1-.24-1.47c-.06-2.53,0-5.07-.12-7.61,0-.88.24-1.08,1.08-.83C134.54,60.61,135.77,62.24,135.75,64.25Z"/><path class="cls-1" d="M130.78,51.79c0-1.45,0-2.9,0-4.35,0-.89.38-1,1.08-.76a3.52,3.52,0,0,1,1.45.93A6,6,0,0,1,132,56.7c-1.09.62-1.25.54-1.25-.68,0-1.41,0-2.82,0-4.23Z"/></g></g></svg>